<svg xmlns="http://www.w3.org/2000/svg" xml:space="preserve" viewBox="0 0 500 500"><path d="M0 0h500v500H0z" style="fill:#c1c9fc"/><circle cx="100.492" cy="407.186" r="2.486" style="fill:#a0a8fb"/><path d="M98.007 387.285a2.485 2.485 0 1 1 4.97 0 2.485 2.485 0 0 1-4.97 0M98.007 367.383a2.486 2.486 0 1 1 4.972 0 2.486 2.486 0 0 1-4.972 0M98.007 347.482a2.486 2.486 0 1 1 4.972 0 2.486 2.486 0 0 1-4.972 0M78.105 407.186a2.486 2.486 0 1 1 4.972 0 2.486 2.486 0 0 1-4.972 0M78.105 387.285a2.485 2.485 0 1 1 4.97 0 2.485 2.485 0 0 1-4.97 0M78.105 367.383a2.486 2.486 0 1 1 4.972 0 2.486 2.486 0 0 1-4.972 0M78.105 347.482a2.486 2.486 0 1 1 4.972 0 2.486 2.486 0 0 1-4.972 0M58.204 407.186a2.486 2.486 0 1 1 4.972 0 2.486 2.486 0 0 1-4.972 0M58.204 387.285a2.485 2.485 0 1 1 4.97 0 2.485 2.485 0 0 1-4.97 0M58.204 367.383a2.486 2.486 0 1 1 4.972 0 2.486 2.486 0 0 1-4.972 0M58.204 347.482a2.486 2.486 0 1 1 4.972 0 2.486 2.486 0 0 1-4.972 0M98.007 327.015a2.485 2.485 0 1 1 4.97 0 2.485 2.485 0 0 1-4.97 0M78.105 327.015a2.485 2.485 0 1 1 4.97 0 2.485 2.485 0 0 1-4.97 0M58.204 327.015a2.485 2.485 0 1 1 4.97 0 2.485 2.485 0 0 1-4.97 0M453.96 284.052a2.486 2.486 0 1 1 4.972 0 2.486 2.486 0 0 1-4.972 0M453.96 264.15a2.486 2.486 0 1 1 4.972 0 2.486 2.486 0 0 1-4.972 0M453.96 244.249a2.485 2.485 0 1 1 4.97 0 2.485 2.485 0 0 1-4.97 0M453.96 224.347a2.485 2.485 0 1 1 4.97 0 2.485 2.485 0 0 1-4.97 0M434.058 284.052a2.486 2.486 0 1 1 4.972 0 2.486 2.486 0 0 1-4.972 0M434.058 264.15a2.486 2.486 0 1 1 4.973 0 2.486 2.486 0 0 1-4.973 0M434.058 244.249a2.485 2.485 0 1 1 4.97 0 2.485 2.485 0 0 1-4.97 0M434.058 224.347a2.485 2.485 0 1 1 4.97 0 2.485 2.485 0 0 1-4.97 0M414.156 284.052a2.486 2.486 0 1 1 4.972 0 2.486 2.486 0 0 1-4.972 0M414.156 264.15a2.485 2.485 0 1 1 4.97 0 2.485 2.485 0 0 1-4.97 0M414.156 244.249a2.485 2.485 0 1 1 4.97 0 2.485 2.485 0 0 1-4.97 0M414.156 224.347a2.485 2.485 0 1 1 4.97 0 2.485 2.485 0 0 1-4.97 0M453.96 203.88a2.485 2.485 0 1 1 4.97 0 2.485 2.485 0 0 1-4.97 0M434.058 203.88a2.486 2.486 0 1 1 4.972 0 2.486 2.486 0 0 1-4.972 0M414.156 203.88a2.486 2.486 0 1 1 4.972 0 2.486 2.486 0 0 1-4.972 0M20.236 461.729H484.13s-3.233 21.683-239.096 21.683-224.798-21.683-224.798-21.683" style="fill:#a0a8fb"/><path d="M169.884 107.469c-2.407-1.385-4.186-1.992-4.186-1.992-2.386-2.801-6.572-3.185-10.214-2.705-3.653.479-7.307 1.598-10.939 1.044a11.6 11.6 0 0 1-3.675-1.225v-.011a12.2 12.2 0 0 1-1.992-1.289 12 12 0 0 1-3.036-3.621c-2.237-4.122-1.832-8.979-1.981-13.74l-1.566.053c-2.173 7.605-8.649 11.738-10.172 12.515-2.578 1.321-6.252 2.748-8.457 1.662-.394-.192-1.012-.586-1.757-1.108l-.213 2.269s-3.504 1.044-6.508 2.524c-3.014 1.48-10.928 9.32-10.928 9.32s-2.556.969-5.816 2.397c-1.481-1.257-1.811-3.504-1.321-5.39.501-1.917 1.704-3.557 2.865-5.166 1.161-1.608 2.333-3.281 2.759-5.219.533-2.396-.138-4.889-.969-7.2s-1.843-4.612-2.002-7.062c-.171-2.578.607-5.113 1.544-7.52.948-2.397 2.066-4.751 2.62-7.275.426-1.981.479-4.133-.17-6.05-1.193-.916-2.098-2.205-2.716-3.59-.724-1.64-1.086-3.419-1.406-5.187-.192-1.076-.352-2.247.149-3.227.607-1.172 1.96-1.704 3.163-2.237 3.866-1.726 7.19-4.463 10.95-6.402 3.76-1.938 8.361-3.014 12.185-1.204l.021.043c5.507-2.226 12.43-.266 15.934 4.537 3.089 4.239 3.6 10.108 7.232 13.889 3.749 3.888 10.097 4.751 13.24 9.16 4.175 5.869.49 14.827 4.527 20.781 1.587 2.343 4.122 3.813 6.572 5.23 2.439 1.406 4.963 2.918 6.508 5.283 1.512 2.334 1.736 5.775-.245 7.713" style="fill:#222a40"/><path d="M134.894 465.15c1.15-5.176 6.37-8.361 6.37-8.361l3.792-21.814v-.011l.937-5.422-.81-9.054s9.331 4.495 15.775-2.961c3.962 1.236 8.287 14.901 8.287 14.901l-8.287 34.574h-26.287a8.6 8.6 0 0 1 .223-1.852" style="fill:#6455e7"/><path d="m138.825 405.918 2.077 21.654c-4.793 3.696-11.461 3.824-13.879 3.728-.596-.021-.937-.053-.937-.053s-23.39-75.305-24.871-85.871c-1.481-10.555-4.697-49.049-4.697-49.049h-.011c.181-23.252.639-68.349 1.715-90.408 0 0 11.226 4.25 21.494 3.952a36.55 36.55 0 0 0 14.848-3.653l12.196 4.133 5.145-15.167.192.075c-10.662 81.035-3.653 115.63-3.653 115.63.809.032 1.598.032 2.375-.011l-12.345 30.463s16.776 26.65 19.737 40.262c2.961 13.623 2.748 35.927 2.748 35.927-6.444 7.456-15.775 2.961-15.775 2.961z" style="fill:#222a40"/><path d="m177.254 135.248-7.594 22.41-4.474-1.662-5.623 16.574-12.803 37.78-12.196-4.133-34.915-11.834 17.5-51.616 1.14-3.365v-.011l8.67-25.584.064-.181 12.707 4.303 34.404 11.663z" style="fill:#e8a03f"/><path d="M145.056 434.964v.011l-3.792 21.814s-5.219 3.185-6.37 8.361h-24.136c-.884-7.062 7.957-9.693 7.957-9.693l8.308-24.136v-.021c2.418.096 9.086-.032 13.879-3.728 0 0 3.174 2.769 4.154 7.392M140.87 102.58v.011l-1.14 15.338-12.707-4.303-.064.181-.543-.181c3.781-2.908 9.799-7.935 12.462-12.334.618.489 1.289.926 1.992 1.288" style="fill:#6455e7"/><path d="M133.147 78.018a.6.6 0 0 1-.149.053 18.6 18.6 0 0 1-.703 5.911c-2.173 7.605-8.649 11.738-10.172 12.515-2.578 1.321-6.252 2.748-8.457 1.662-.394-.192-1.012-.586-1.757-1.108-3.408-2.407-9.671-7.754-11.216-11.653-1.257-3.195-2.716-11.972-3.526-17.372v-.011c2.279-13.815 14.006-17.649 14.006-17.649 5.475 9.086 20.642 11.844 20.642 11.844a5.1 5.1 0 0 1 2.077-.383c1.598.064 3.121.916 4.143 2.141 1.023 1.236 1.566 2.823 1.672 4.41a9.6 9.6 0 0 1-2.013 6.529 9.3 9.3 0 0 1-4.547 3.111M140.944 174.519c-2.94 3.206-4.09 11.823-4.367 14.443h-.011c-.639-.192-24.796-7.477-26.916-8.585-1.246-.639-2.609-2.546-3.728-4.506-.82-1.449-1.502-2.908-1.896-3.93-.916-2.407.373-5.624.373-5.624-.373-1.193-.426-2.173-.33-2.95.202-1.555.991-2.311.991-2.311-.522-3.44 1.853-5.475 1.853-5.475.511-4.069 6.881-3.547 6.881-3.547l.064.426.607 4.016 3.621 3.472s-1.704-5.73-2.737-8.287c-.213-.522-.405-1.204-.554-1.971-.586-3.004-.554-7.211 1.513-7.211.309 0 .586.106.841.288 1.885 1.395 2.503 7.456 5.603 11.109 3.515 4.154 6.806 11.365 8.809 13.921 2.002 2.557 9.383 6.722 9.383 6.722" style="fill:#e07049"/><path d="M135.842 97.67a12 12 0 0 0 3.036 3.621c-2.663 4.399-8.681 9.426-12.462 12.334a77 77 0 0 1-3.291 2.428c-10.438-6.295-11.951-11.099-11.951-11.099 19.886.501 21.122-20.972 21.122-20.972.511-1.779.788-3.749.703-5.911a.6.6 0 0 0 .149-.053c1.672 6.444-.48 13.783 2.694 19.652" style="fill:#e07049"/><path d="m99.649 194.384 34.915 11.833a36.5 36.5 0 0 1-14.848 3.653c-10.268.298-21.494-3.952-21.494-3.952.181-3.589.362-6.561.575-8.734.085-.863.181-1.821.288-2.854zM126.959 113.807l-9.81 28.961a1.44 1.44 0 0 0-.841-.288c-2.066 0-2.098 4.207-1.513 7.211l-.937 2.769-.064-.426s-6.369-.522-6.881 3.547c0 0-2.375 2.034-1.853 5.475 0 0-.788.756-.991 2.311l-1.065-.149c3.643-27.129 8.17-58.262 8.17-58.262s1.512 4.804 11.951 11.099c0 0 1.353-.927 3.291-2.428z" style="fill:#6455e7"/><path d="M132.295 83.983s-1.236 21.473-21.122 20.972l.522-5.634.213-2.269c.746.522 1.363.916 1.757 1.108 2.205 1.087 5.88-.341 8.457-1.662 1.524-.777 8-4.91 10.173-12.515" style="fill:#222a40"/><path d="M88.444 113.562c3.259-1.427 5.816-2.397 5.816-2.397s7.914-7.839 10.928-9.32c3.004-1.48 6.508-2.524 6.508-2.524l-.522 5.635s-4.527 31.134-8.17 58.262c-1.651 12.281-3.121 23.731-3.92 31.112-.107 1.033-.202 1.992-.288 2.854-.213 2.173-.394 5.145-.575 8.734-1.076 22.059-1.534 67.156-1.715 90.408-.064 8.883-.085 14.582-.085 14.582s-15.455-3.664-20.813-17.457a31 31 0 0 1-.703-2.056s-.692-48.463 8.297-85.668c0 0-13.825-1.779-18.757-15.796s-6.519-53.299-6.519-53.299.746-.181 1.949-.426c.138-.032.288-.064.437-.096 3.483-.692 9.991-1.747 14.251-1.001-.447-1.694-1.161-5.059-.351-6.764.628-1.31.884-4.048.969-6.7 1.525-2.566 8.236-5.878 13.263-8.083" style="fill:#ecb45e"/><path d="m105.923 175.872-6.274 18.512-.565-.053c.799-7.381 2.269-18.832 3.92-31.112l1.065.149c-.096.778-.043 1.757.33 2.95 0 0-1.289 3.217-.373 5.624.395 1.022 1.077 2.481 1.897 3.93" style="fill:#6455e7"/><path d="M75.183 121.646c-.085 2.652-.341 5.389-.969 6.7-.81 1.704-.096 5.07.351 6.764-4.26-.746-10.768.309-14.251 1.001-.266-1.64-.959-5.059-2.386-7.818-1.949-3.771-4.516-12.931-3.792-15.253.714-2.311 5.624-5.794 8.084-6.018 0 0-5.624-16.872-6.21-18.352 0 0 2.514-2.279 4.878 1.821 2.375 4.101 7.115 14.465 7.115 14.465s.959-.746 2.12.245c0 0 2.759-2.642 4.729-2.673 1.981-.021.895 2.13.799 3.462-.106 1.331-.522 7.52-.447 10.311a83 83 0 0 1-.021 5.345" style="fill:#e07049"/><path d="M187.671 194.075c-1.853 4.292-3.259 5.113-13.027 5.624 0 0 .81 51.158.884 60.553.074 9.405-.437 35.831-.437 35.831s-8.542 14.113-24.274 14.795c-.778.043-1.566.043-2.375.011 0 0-7.009-34.595 3.653-115.63l-.192-.075-15.413-5.454s.021-.277.075-.767h.011c.277-2.62 1.427-11.237 4.367-14.443.394-.426.82-.756 1.278-.969 0 0 10.204-.724 17.34-.98l5.624-16.573 4.473 1.662 7.594-22.41-3.121-5.656-34.404-11.663 1.14-15.338a11.6 11.6 0 0 0 3.675 1.225c3.632.554 7.286-.564 10.939-1.044 3.643-.479 7.829-.096 10.214 2.705 0 0 1.779.607 4.186 1.992 3.057 1.779 7.136 4.814 9.788 9.469 2.077 3.632 3.952 9.618 5.432 16.275 1.928 8.564 3.206 18.224 3.451 25.393.451 12.747.973 31.174-.881 35.467" style="fill:#ecb45e"/><path d="M108.387 71.727s1.846 2.171 2.593 5.23-.803 5.534-1.999 5.681-3.667-.624-3.887-2.252c0 0 .18-1.19.853-2.28.674-1.089 2.44-6.379 2.44-6.379" style="fill:#bd4a28"/><path d="M110.49 83.28h-.01c-1.767-.034-3.468-.496-4.919-1.334-.95-.55-1.252-1.701-.718-2.737a43.2 43.2 0 0 0 3.374-8.731.5.5 0 0 1 .967.255 44 44 0 0 1-3.452 8.934c-.286.555-.15 1.135.33 1.413 1.305.754 2.84 1.169 4.438 1.2a.499.499 0 0 1-.01 1M115.032 69.112c.289 1.465 1.557 2.449 2.832 2.198 1.275-.252 2.074-1.643 1.785-3.109s-1.557-2.449-2.832-2.198c-1.275.252-2.074 1.644-1.785 3.109M100.507 71.978c.289 1.465 1.557 2.449 2.832 2.198s2.074-1.643 1.785-3.109-1.557-2.449-2.832-2.198c-1.275.252-2.074 1.643-1.785 3.109M115.26 60.947a13.5 13.5 0 0 1 4.801.321c.286.071.576.363.703.617.138.275.178.67.062.962-.116.293-.321.571-.617.703-.32.142-.622.147-.962.062q-.128-.03-.257-.059a12 12 0 0 0-2.899-.203q-.175.013-.351.031c-.333.037-.644.005-.931-.187-.253-.169-.48-.484-.526-.79-.093-.619.287-1.38.977-1.457M103.245 63.317a13.5 13.5 0 0 0-4.319 2.12c-.238.174-.395.554-.416.838-.023.307.09.688.308.913.219.227.513.406.838.416.35.01.631-.101.913-.308q.108-.077.215-.152a12 12 0 0 1 2.604-1.289q.168-.054.337-.104c.322-.092.598-.24.79-.526.169-.253.26-.63.187-.931-.149-.608-.789-1.168-1.457-.977" style="fill:#222a40"/><path d="M108.082 88.53c1.143 1.387 3.806 3.753 7.851 2.228 3.695-1.377 3.942-5.092 3.795-6.959a.836.836 0 0 0-1.153-.721l-10.145 4.166c-.528.215-.7.865-.348 1.286" style="fill:#fff"/><path d="M133.286 75.867a.5.5 0 0 1-.497-.448c-.352-3.382.77-6.933 3.001-9.498a.5.5 0 1 1 .755.657c-2.053 2.36-3.086 5.626-2.761 8.738a.5.5 0 0 1-.498.551M90.122 110.288h-.024c-2.139-.101-3.512-2.258-3.557-4.2-.044-1.876.846-3.613 1.813-5.21l.281-.46c.804-1.313 1.636-2.672 1.902-4.146.487-2.686-.859-5.174-2.285-7.808-1.311-2.422-2.666-4.927-2.558-7.686.131-3.337 2.305-6.004 4.407-8.583l.63-.777c2.854-3.549 3.845-6.608 2.946-9.093a.5.5 0 1 1 .94-.34c1.026 2.835-.02 6.22-3.107 10.06l-.635.782c-1.998 2.452-4.065 4.987-4.183 7.991-.097 2.485 1.192 4.867 2.438 7.171 1.444 2.67 2.938 5.431 2.389 8.461-.3 1.659-1.182 3.099-2.034 4.49l-.278.457c-.889 1.468-1.706 3.049-1.669 4.669.035 1.5 1.089 3.154 2.604 3.225a.5.5 0 0 1-.02.997M168.391 103.649a.5.5 0 0 1-.416-.776c2.073-3.131 1.67-7.715-.915-10.438-1.066-1.123-2.463-1.963-3.814-2.776-1.67-1.005-3.397-2.044-4.608-3.652-1.902-2.524-2.054-5.719-2.201-8.809-.076-1.603-.155-3.261-.479-4.793a13.73 13.73 0 0 0-4.61-7.658c-2.429-2.029-5.52-3.17-8.509-4.274-.835-.308-1.668-.616-2.489-.942-5.114-2.033-8.265-4.609-9.634-7.876a.501.501 0 0 1 .923-.387c1.259 3.007 4.229 5.405 9.08 7.333.813.323 1.639.628 2.466.934 3.068 1.133 6.241 2.305 8.803 4.444a14.74 14.74 0 0 1 4.948 8.219c.341 1.61.422 3.309.5 4.952.146 3.073.284 5.976 2.001 8.254 1.094 1.452 2.664 2.397 4.325 3.397 1.408.847 2.864 1.724 4.023 2.944 2.893 3.045 3.343 8.175 1.024 11.678a.5.5 0 0 1-.418.226M145.291 108.419c-3.506 0-7.172-1.998-9.39-5.266-2.132-3.142-3.096-7.384-2.787-12.268.2-3.158.874-6.291 1.525-9.32.217-1.01.435-2.02.635-3.031a.498.498 0 1 1 .98.194c-.201 1.017-.42 2.032-.638 3.047-.644 2.994-1.31 6.089-1.505 9.173-.206 3.25.082 7.907 2.616 11.643 2.388 3.519 6.579 5.436 10.191 4.658 2.295-.493 4.209-1.905 6.234-3.399 2.044-1.507 4.157-3.066 6.697-3.585a.5.5 0 0 1 .2.98c-2.325.475-4.257 1.901-6.304 3.411-2.021 1.491-4.112 3.033-6.618 3.572a8.8 8.8 0 0 1-1.836.191" style="fill:#222a40"/><circle cx="125.026" cy="75.367" r="3.833" style="fill:#bd4a28"/><path d="M81.928 153.822a.5.5 0 0 1-.462-.31c-2.515-6.129-5.45-15.737-5.861-17.097-3.991-2.766-17.415.667-17.551.701a.5.5 0 1 1-.251-.967c.583-.152 14.327-3.664 18.537-.435a.5.5 0 0 1 .175.253c.032.105 3.198 10.638 5.877 17.166a.5.5 0 0 1-.464.689M78.95 228.997a.501.501 0 0 1-.493-.584l7.952-46.772L84.48 160.7c-1.796-11.445 6.339-29.919 6.687-30.7a.5.5 0 0 1 .914.406c-.084.189-8.363 18.987-6.608 30.17l1.939 21.038a.5.5 0 0 1-.005.13l-7.962 46.837a.505.505 0 0 1-.495.416M100.448 171.033a.5.5 0 0 1-.499-.472l-3.281-57.839a.499.499 0 1 1 .998-.056l3.281 57.839a.5.5 0 0 1-.471.527zM146.755 120.81a.5.5 0 0 1-.494-.584l1.645-9.638a.5.5 0 1 1 .986.168l-1.645 9.638a.5.5 0 0 1-.492.416M183.069 177.809a.5.5 0 0 1-.408-.21c-1.732-2.432-10.188-4.737-13.294-5.06-2.778-.29-26.864 1.491-27.107 1.508a.5.5 0 0 1-.075-.997c.996-.073 24.42-1.802 27.285-1.506 2.541.264 11.877 2.486 14.005 5.475a.5.5 0 0 1-.406.79M173.144 200.223c-3.33 0-7.227-.33-11.269-1.361-10.666-2.721-25.422-8.609-25.569-8.669a.5.5 0 1 1 .371-.928c.148.059 14.844 5.923 25.445 8.628 10.881 2.776 20.626.37 20.716.343a.5.5 0 0 1 .622.334.497.497 0 0 1-.328.622c-.056.018-4.149 1.031-9.988 1.031M88.175 303.776h-.022a.5.5 0 0 1-.478-.521c1.089-25.527 6.277-103.786 6.329-104.573a.5.5 0 0 1 .532-.466.5.5 0 0 1 .466.532c-.052.787-5.239 79.034-6.328 104.55a.5.5 0 0 1-.499.478M154.432 308.227a.5.5 0 0 1-.498-.459c-1.615-19.679-.018-107.175-.001-108.057a.5.5 0 0 1 .5-.491h.009a.5.5 0 0 1 .491.509c-.017.881-1.613 88.327-.001 107.956a.5.5 0 0 1-.5.542M70.356 120.138c-1.195 0-2.354-1.332-3.01-2.246-.315.703-.622 1.254-.851 1.47-.317.301-.774.327-1.224.069-.933-.533-1.939-2.345-1.804-4.335l-2.073.601a.5.5 0 0 1-.279-.961l2.819-.816a.5.5 0 0 1 .483.117.5.5 0 0 1 .144.475c-.339 1.478.175 2.85.718 3.576.315.421.551.517.598.52.201-.204.537-.943.873-1.835a.5.5 0 0 1 .085-.229c.545-1.486 1.063-3.288.976-3.759-.149-.806-2.321-3.75-3.71-4.641-1.174-.753-1.747-.642-1.751-.64a.52.52 0 0 1-.561-.255.49.49 0 0 1 .09-.594c.13-.12 3.194-2.931 6.243-2.186a.5.5 0 0 1 .335.275c.54 1.158 5.22 11.396 3.543 14.284-.533.918-1.188 1.11-1.644 1.11m-2.553-3.358c.616.988 1.747 2.358 2.554 2.357.104 0 .423 0 .779-.612 1.055-1.815-1.466-8.757-3.479-13.132-1.583-.271-3.229.624-4.207 1.303.336.122.734.313 1.192.606 1.48.948 3.925 4.069 4.154 5.3.129.703-.382 2.57-.993 4.178M64.074 131.74a.5.5 0 0 1-.089-.992l7.799-1.41a.5.5 0 0 1 .178.984l-7.799 1.41a.5.5 0 0 1-.089.008" style="fill:#222a40"/><path d="M71.568 119.277a.5.5 0 0 1-.294-.905c1.058-.766 2.735-2.333 2.735-3.279 0-1.515-3.062-8.885-4.122-9.451-1.043-.556-1.612-.264-1.636-.252a.506.506 0 0 1-.676-.189.494.494 0 0 1 .167-.671c.104-.064 1.063-.597 2.615.23 1.622.866 4.651 8.743 4.651 10.333 0 1.762-2.827 3.857-3.15 4.09a.5.5 0 0 1-.29.094M109.13 161.154a.5.5 0 0 1-.321-.117c-2.378-1.995-2.396-5.316-2.396-5.457a.5.5 0 0 1 .5-.498h.001a.5.5 0 0 1 .499.5c0 .03.025 2.999 2.038 4.689a.5.5 0 0 1-.321.883M106.913 164.901a.5.5 0 0 1-.263-.075c-1.866-1.159-2.08-3.626-2.088-3.731a.5.5 0 0 1 .998-.079c.002.021.187 2.072 1.619 2.96a.5.5 0 0 1-.266.925M105.986 169.748a.5.5 0 0 1-.28-.086c-1.482-1.004-1.79-3.186-1.802-3.278a.499.499 0 1 1 .991-.133c.002.019.264 1.833 1.372 2.583a.5.5 0 0 1-.281.914M134.671 467.503l-.026-.001a.5.5 0 0 1-.474-.524c.32-6.318 5.502-9.811 6.639-10.503l3.752-21.586a.495.495 0 0 1 .578-.406.5.5 0 0 1 .407.578l-3.792 21.814a.5.5 0 0 1-.25.352c-.06.033-6.012 3.418-6.336 9.803a.5.5 0 0 1-.498.473" style="fill:#222a40"/><path d="M138.825 406.418a.5.5 0 0 1-.433-.248c-1.331-2.287-32.606-56.147-32.969-67.629-.361-11.41 15.721-99.704 16.406-103.457a.507.507 0 0 1 .582-.402c.271.05.452.311.402.582-.168.918-16.748 91.941-16.39 103.246.355 11.23 32.509 66.599 32.834 67.156a.501.501 0 0 1-.432.752M118.329 235.674a.5.5 0 0 1-.194-.039l-15.825-6.677a.5.5 0 1 1 .389-.922l15.825 6.677a.5.5 0 0 1-.195.961M115.56 237.701a1 1 0 0 1-.085-.007l-11.861-2.027a.5.5 0 0 1 .169-.986l11.861 2.027a.5.5 0 0 1-.084.993" style="fill:#10141c"/><path d="M407.958 222.554q-.146-.924-.292-1.817c-.67-4.023-1.417-7.516-2.249-10.295l10.068-1.947s-7.894-6.618-8.035-12.404l-1.957-1.049s.627-9.419 1.006-18.816c.032-.562.054-1.125.065-1.698.249-6.553.335-12.814-.022-15.561-.897-6.921-1.243-22.666-2.401-26.613-.616-2.087-7.916-6.64-14.653-10.457-.487-.281-.984-.562-1.471-.833-5.385-3.006-10.035-5.385-10.035-5.385l-.162-1.308c-7.051.033-11.874-2.476-15.172-5.742l-8.532-.692-1.882-.151-2.541 7.44s-4.228 1.244-9.43 3.05c-.497.173-1.006.346-1.525.53-7.408 2.639-16.059 6.229-17.292 8.965-.854 1.903-2.639 6.045-4.639 13.258a103 103 0 0 0-.422 1.568c-2.303 8.684-4.812 21.401-6.456 39.363-.043.519-.097 1.049-.141 1.59-.487 5.515-.876 11.517-1.168 18.027 0 0 .227 9.051 9.916 11.571 4.736 1.233 23.142-4.801 23.142-4.801s-11.971 16.881-16.556 32.085a48 48 0 0 0-.941 3.536c-.53 2.357-.833 4.639-.833 6.759 0 6.856 1.341 19.757 2.909 32.518.076.551.141 1.092.216 1.644 2.163 17.432 4.682 34.085 4.682 34.085s.735.368 2.011.973c4.293 2.044 14.739 6.867 24.591 10.143a48 48 0 0 0 1.655.541 53 53 0 0 0 2.033.627c4.488 1.319 8.64 2.174 11.798 2.141 9.43-.119 26.689-6.099 35.102-9.235.216-.087.422-.162.627-.238.314-.119.616-.227.897-.335 2.109-.8 3.363-1.309 3.363-1.309s-.119-66.095-5.277-99.715v-.013zm-76.801-34.355 3.017-10.025.53-1.784 2.325-7.732s.768 3.039 1.687 6.661c.119.508.249 1.016.389 1.536 1.244 4.91 2.606 10.241 2.725 10.446.228.368-10.673.898-10.673.898" style="fill:#fff"/><path d="M346.318 140.066c-.335 4.563-4.12 7.224-8.489 7.288-2.649.043-5.245-.703-7.786-1.341-2.725-.681-5.439-1.363-8.164-2.044-1.828-.454-3.666-.919-5.493-1.373.141-.541.281-1.06.422-1.568 2.033.508 4.055 1.016 6.088 1.525 2.52.627 5.05 1.265 7.57 1.903 2.53.627 5.115 1.406 7.743 1.265 2.011-.097 4.153-.854 5.385-2.53 1.276-1.73 1.276-3.979.919-6.012-.4-2.282-1.222-4.477-1.947-6.672-.811-2.476-1.622-4.963-2.433-7.44l-1.395-4.261c.519-.184 1.027-.357 1.525-.53.833 2.53 1.665 5.072 2.498 7.602.843 2.585 1.73 5.169 2.531 7.764.637 2.055 1.178 4.261 1.026 6.424M406.563 174.53a43 43 0 0 1-.065 1.698c-3.99 1.146-8.078 1.828-12.23 1.503-5.537-.433-11.214-2.606-14.761-7.051-3.817-4.769-4.38-11.171-3.309-16.999 2.044-11.171 11.008-21.249 11.82-32.615.487.27.984.552 1.471.833-.508 4.607-2.174 9.105-4.109 13.312-2.747 5.958-6.153 11.766-7.494 18.254-1.2 5.807-.671 12.447 3.536 16.978 3.817 4.098 9.646 5.796 15.118 5.742 3.415-.033 6.757-.693 10.023-1.655M363.221 203.933c-2.725 4.78-6.38 9.062-10.23 12.966-7.732 7.851-16.697 14.361-24.418 22.233a81 81 0 0 0-4.39 4.834q.389-1.736.941-3.536a91 91 0 0 1 3.471-3.612c7.689-7.602 16.459-14.015 23.964-21.801 3.796-3.925 7.375-8.24 9.916-13.106 2.422-4.65 4.001-10.262 2.347-15.421-1.471-4.563-5.407-7.732-9.808-9.3-4.942-1.752-10.165-1.546-15.237-.476-.227.043-.443.097-.67.141a44 44 0 0 1-.389-1.536c2.379-.551 4.769-.941 7.18-1.049 9.181-.411 19.649 4.304 21.055 14.318.745 5.342-1.126 10.749-3.732 15.345M359.414 330.629a48 48 0 0 1-1.655-.541 133 133 0 0 0-.735-6.834 139 139 0 0 0-3.947-19.184c-1.503-5.342-3.298-10.965-7.18-15.096-4.899-5.234-12.901-6.596-19.422-4.088-.076-.552-.141-1.092-.216-1.644a20.3 20.3 0 0 1 8.24-1.157c4.92.324 9.581 2.401 12.879 6.099 3.936 4.423 5.807 10.23 7.364 15.821a140 140 0 0 1 4.672 26.624M409.872 323.589c-.281.108-.584.216-.897.335-.206.076-.411.151-.627.238-3.439-4.758-8.035-8.824-12.609-12.155-9.332-6.791-20.114-12.155-27.608-21.163-6.726-8.078-10.781-19.043-6.359-29.198 2.076-4.79 5.677-8.748 9.527-12.198 4.466-4.001 9.332-7.57 14.058-11.268l22.309-17.443q.146.892.292 1.817v.011c-8.273 6.456-16.535 12.923-24.807 19.389-8.186 6.402-18.589 13.236-21.141 24.018-2.541 10.771 4.099 21.487 11.809 28.43 8.705 7.84 19.508 12.858 28.289 20.6 2.843 2.509 5.536 5.397 7.764 8.587" style="fill:#ecb45e"/><path d="M408.977 323.924s.054 3.06 0 5.461c-.054 2.411-26.948 102.224-26.948 102.224l-.93 5.731-.281-.043-13.377-13.907s-4.207-62.331 10.425-71.75l-4.618-18.243c9.668-.119 27.576-6.413 35.729-9.473M388.377 73.603c.508 5.093 1.482 15.94.962 19.8-.692 5.147-7.753 14.155-9.646 15.756-.616.519-1.449.811-2.379.962-1.968.303-4.412-.076-6.359-.519a16 16 0 0 1-1.373-.422c-3.612-1.265-11.82-5.342-13.863-15.064a9 9 0 0 1-2.001-.303 9.1 9.1 0 0 1-3.396-1.665 9.7 9.7 0 0 1-3.59-5.937c-.281-1.59-.141-3.287.562-4.747.714-1.471 2.001-2.682 3.558-3.136a5.3 5.3 0 0 1 2.141-.13s4.92-11.149 10.781-15.204c0 0 8.586 10.143 24.31 7.894h.011c.001.001.12 1.05.282 2.715" style="fill:#e48c59"/><path d="m388.507 73.593-.13.011c-.162-1.665-.281-2.714-.281-2.714h-.011c-15.723 2.249-24.31-7.894-24.31-7.894-5.861 4.055-10.781 15.204-10.781 15.204a5.3 5.3 0 0 0-2.141.13c-1.557.454-2.844 1.665-3.558 3.136-.703 1.46-.843 3.158-.562 4.747a9.7 9.7 0 0 0 3.59 5.937 9.1 9.1 0 0 0 3.396 1.665l-.043.184c-1.882 2.357-4.91 3.752-7.927 3.644-3.006-.108-5.926-1.698-7.645-4.185-.833-1.2-1.373-2.866-.573-4.099-3.763-.768-6.889-4.034-7.483-7.829-.724-4.553 1.871-8.954 2.347-13.539.508-4.845-1.363-9.873.043-14.534 1.428-4.704 6.24-8.002 11.149-8.111 4.801-.119 9.462 2.574 12.198 6.532 9.549-4.866 21.249-1.925 23.553.065 3.049 2.628 14.015 4.174 14.729 8.273.723 4.087-5.56 13.377-5.56 13.377" style="fill:#222a40"/><path d="M363.181 426.743c.908-2.509 4.261-3.352 4.261-3.352l13.377 13.907.281.043-2.822 17.302s3.45 5.429 2.195 12.036l-9.267-3.244c-1.027-2.347-2.812-5.202-5.71-6.38l-3.071-20.655-.368-2.444-.032-5.504z" style="fill:#6455e7"/><path d="m377.314 110.122.508 4.25c-7.051.033-11.874-2.476-15.172-5.742l6.932.562v-.011c.606.216 1.081.346 1.373.422 1.947.443 4.391.822 6.359.519" style="fill:#222a40"/><path d="M371.204 463.434c.844 1.957 1.168 3.569 1.168 3.569h-22.633l-4.801-17.81-.151 17.735h-4.477l.562-21.39c.151-5.71 4.034-16.383 4.034-16.383l17.519 7.245 3.071 20.655c2.897 1.178 4.681 4.033 5.708 6.379" style="fill:#6455e7"/><path d="M369.582 109.181v.011l-6.932-.562c-6.056-5.991-6.932-14.512-6.932-14.512 2.045 9.721 10.253 13.798 13.864 15.063" style="fill:#222a40"/><path d="m362.651 108.63-8.532-.692 1.6-13.82c0-.001.876 8.521 6.932 14.512M362.023 428.451l.032 5.504.368 2.444-17.519-7.245s-13.961-53.442-14.036-64.04c-.076-10.598 4.801-18.935 4.801-18.935l-2.498-26.234c4.834 2.303 17.475 8.132 28.278 11.311z" style="fill:#e48c59"/><path d="M376.774 98.517c-.712 1.411-2.653 1.867-4.334 1.019s-2.466-2.681-1.754-4.092 2.653-1.867 4.334-1.019 2.466 2.68 1.754 4.092M378.412 81.828s-1.286 2.591-1.272 5.789 2.149 5.255 3.363 5.107c1.215-.147 3.46-1.514 3.278-3.172 0 0-.469-1.128-1.4-2.037s-3.969-5.687-3.969-5.687" style="fill:#e07045"/><path d="M379.051 93.733a.5.5 0 0 1-.129-.983c1.569-.422 2.98-1.208 4.081-2.272.408-.395.399-1.004-.021-1.483a45 45 0 0 1-5.591-7.954.5.5 0 0 1 .877-.481 43.8 43.8 0 0 0 5.466 7.776c.777.887.762 2.09-.036 2.861-1.223 1.182-2.784 2.052-4.517 2.519a.5.5 0 0 1-.13.017M371.225 80.881c.075 1.514-.933 2.795-2.251 2.86s-2.446-1.11-2.521-2.625.933-2.795 2.251-2.86 2.446 1.111 2.521 2.625M386.237 80.142c.075 1.515-.933 2.795-2.251 2.86s-2.447-1.11-2.521-2.625c-.075-1.515.933-2.795 2.251-2.86s2.447 1.11 2.521 2.625M368.997 72.893c-1.645.22-3.185.716-4.651 1.493-.264.14-.478.499-.541.78-.068.305-.011.704.175.963.186.26.456.484.78.541.35.062.649-.008.963-.175q.119-.062.239-.121a12 12 0 0 1 2.806-.911q.176-.03.354-.055c.337-.045.636-.153.871-.412.207-.229.354-.595.325-.908-.061-.632-.622-1.289-1.321-1.195M381.416 72.281c1.659.057 3.24.399 4.775 1.029.277.113.525.449.615.723.098.297.08.7-.079.975-.16.277-.406.526-.723.615-.343.096-.647.056-.975-.079q-.125-.05-.249-.097a12 12 0 0 0-2.882-.631q-.179-.012-.357-.02c-.34-.012-.648-.089-.908-.325-.229-.207-.411-.557-.412-.871-.004-.635.49-1.343 1.195-1.319M354.773 92.021a.5.5 0 0 1-.494-.43c-.444-3.146-2.264-6.114-4.867-7.937a.5.5 0 1 1 .574-.819c2.825 1.979 4.801 5.2 5.283 8.616a.5.5 0 0 1-.496.57M377.177 98.598c-1.392 0-2.78-.32-4.029-.94a9.07 9.07 0 0 1-4.025-3.985.5.5 0 0 1 .891-.454 8.07 8.07 0 0 0 3.58 3.543 8.07 8.07 0 0 0 4.986.711.5.5 0 1 1 .178.985 9 9 0 0 1-1.581.14" style="fill:#222a40"/><circle cx="363.166" cy="89.212" r="3.883" style="fill:#e07045"/><path d="M336.191 89.71c-.844 0-1.685-.12-2.49-.363a8.87 8.87 0 0 1-5.34-4.573c-1.139-2.369-1.267-5.343-.392-9.092.224-.957.49-1.905.756-2.854.527-1.881 1.072-3.826 1.244-5.778.142-1.607.035-3.275-.068-4.888-.143-2.236-.291-4.549.204-6.8 1.202-5.472 6.299-9.778 12.118-10.239 5.452-.435 11.19 2.558 14.25 7.441a.5.5 0 0 1-.847.531c-2.867-4.577-8.211-7.375-13.324-6.975-5.304.42-10.128 4.486-11.22 9.457-.464 2.113-.327 4.254-.183 6.522.105 1.65.215 3.356.066 5.04-.18 2.044-.738 4.035-1.277 5.96-.262.935-.524 1.869-.744 2.812-.822 3.518-.718 6.275.317 8.431a7.85 7.85 0 0 0 4.728 4.049 7.86 7.86 0 0 0 6.181-.752.5.5 0 0 1 .51.861 8.86 8.86 0 0 1-4.489 1.21M380.068 73.519c-2.456 0-5.119-.592-8.249-1.821-1.674-.658-3.81-1.612-5.487-3.17-1.767-1.64-2.767-3.754-2.739-5.799a.5.5 0 0 1 .5-.493h.007a.5.5 0 0 1 .493.507c-.023 1.763.858 3.604 2.419 5.053 1.556 1.444 3.582 2.347 5.173 2.972 3.632 1.426 6.584 1.96 9.303 1.679 3.361-.349 6.278-2.134 7.612-4.658a.5.5 0 0 1 .885.468c-1.488 2.815-4.705 4.802-8.394 5.186q-.75.076-1.523.076" style="fill:#222a40"/><path d="m408.071 193.342-.443 1.319s-.714.952-2.184 1.168c-1.471.205-3.904-.865-3.904-.865s-2.282.898-5.191.789c-2.909-.119-8.381-1.73-8.381-1.73s-6.067 3.926-10.295 4.661c-4.228.725-11.084-.227-11.084-.227l-5.634 2.401-2.703-13.377 8.132-1.471s16.361-5.645 17.757-6.002c1.384-.357 14.35.335 15.853.865 1.503.519 9.322 7.7 9.322 7.7-.206 1.86-4.174 2.249-4.174 2.249z" style="fill:#e48c59"/><path d="M401.539 195.464a.5.5 0 0 1-.322-.118c-2.195-1.848-5.798-4.71-6.724-5.019-1.27-.422-4.386-.524-4.417-.525a.5.5 0 0 1-.484-.515c.01-.275.252-.515.516-.484.134.004 3.295.107 4.702.576 1.402.468 6.478 4.72 7.052 5.203a.5.5 0 0 1-.323.882M405.14 191.322a.5.5 0 0 1-.27-.079c-.042-.027-4.269-2.734-7.046-3.831-2.708-1.069-7.627-.524-7.676-.52a.5.5 0 1 1-.113-.993c.212-.024 5.219-.578 8.156.583 1.853.731 4.252 2.106 5.765 3.018-1.01-2.02-2.275-4.198-2.911-4.51-1.04-.509-6.012-1.516-7.84-1.861a.499.499 0 1 1 .186-.982c.274.052 6.721 1.273 8.094 1.946 1.418.695 3.674 5.556 4.111 6.523a.5.5 0 0 1-.456.706M341.682 208.845a.5.5 0 0 1-.126-.984l18.451-4.824c.4-6.222-2.103-14.486-2.686-16.313l-26.122 1.973c-7.334.452-13.651 4.972-13.714 5.018a.5.5 0 0 1-.588-.809c.267-.193 6.609-4.736 14.233-5.206l26.506-2.003a.505.505 0 0 1 .512.337c.141.414 3.434 10.203 2.83 17.438a.5.5 0 0 1-.372.442l-18.798 4.914a.5.5 0 0 1-.126.017M337.433 166.855a.5.5 0 0 1-.457-.701l6.413-14.53a.498.498 0 1 1 .914.403l-6.413 14.53a.5.5 0 0 1-.457.298M337.033 169.158a.5.5 0 0 1-.363-.844l7.415-7.815a.5.5 0 1 1 .725.688l-7.415 7.815a.5.5 0 0 1-.362.156M368.023 123.261c-4.867 0-12.468-4.666-12.815-4.881a.5.5 0 1 1 .526-.85c.09.055 8.949 5.493 13.269 4.645 4.343-.859 7.52-4.131 7.552-4.164a.5.5 0 1 1 .723.692c-.138.144-3.42 3.532-8.081 4.454a6.2 6.2 0 0 1-1.174.104M406.057 186.15l-.04-.001a.5.5 0 0 1-.459-.537c.013-.169 1.307-17.062.488-26.601-.81-9.421-11.964-22.563-12.076-22.695a.5.5 0 1 1 .76-.65c.469.547 11.476 13.52 12.313 23.258.826 9.621-.475 26.594-.488 26.764a.5.5 0 0 1-.498.462" style="fill:#222a40"/><path d="M371.854 198.123h93.735v2.155h-93.735zM472.756 154.154h-72.277l-7.168 43.969h72.278z" style="fill:#858cb6"/><path d="M465.589 198.623h-72.277a.5.5 0 0 1 0-1h72.277a.5.5 0 0 1 0 1" style="fill:#222a40"/><path d="M408.665 200.279s2.201 7.02 6.82 8.217c0 0 14.038-2.515 16.243-5.366 0 0 16.183-1.845 16.835-2.851z" style="fill:#e48c59"/><path d="M356.687 353.687a.5.5 0 0 1-.131-.018c-3.708-1.005-6.873-3.691-8.468-7.186a.501.501 0 0 1 .91-.416c1.473 3.228 4.396 5.709 7.819 6.637a.5.5 0 0 1-.13.983M398.569 358.718a.5.5 0 0 1-.159-.026 19.14 19.14 0 0 1-9.951-7.749.498.498 0 1 1 .839-.541 18.15 18.15 0 0 0 9.43 7.343.5.5 0 0 1-.159.973M372.373 467.503a.5.5 0 0 1-.499-.471c-.478-8.081-6.239-9.437-6.484-9.49a.5.5 0 0 1-.389-.415l-3.071-20.654a.499.499 0 1 1 .988-.146l3.024 20.337c1.381.447 6.474 2.615 6.93 10.311a.5.5 0 0 1-.47.528z" style="fill:#222a40"/><path d="m434.689 128.062 2.831 2.83a23 23 0 0 0 5.661-9.562l-3.828-1.129c.704-2.376.924-4.854.645-7.304l3.96-.44c-.455-3.711-1.73-7.362-3.945-10.398l-3.241 2.273a20.4 20.4 0 0 0-2.082-2.464 19.2 19.2 0 0 0-3.241-2.596l2.112-3.373c-3.168-1.965-6.834-3.197-10.574-3.388l-.249 3.975a18.4 18.4 0 0 0-7.274.997l-1.305-3.769a22.05 22.05 0 0 0-9.254 6.145l2.948 2.684a18.7 18.7 0 0 0-3.754 6.306l-3.754-1.32c-1.276 3.535-1.569 7.377-.968 11.058l3.945-.631a18.3 18.3 0 0 0 2.581 6.864l-3.373 2.112c1.98 3.212 4.796 5.793 8.052 7.67l1.951-3.476c2.185 1.217 4.561 1.98 6.981 2.229l-.44 3.989c3.711.425 7.524-.132 10.999-1.525l-1.496-3.696a18.4 18.4 0 0 0 6.112-4.061m-21.178-5.016c-4.458-4.459-4.458-11.703 0-16.162s11.703-4.458 16.162 0 4.444 11.689-.015 16.147c-4.458 4.459-11.689 4.474-16.147.015" style="fill:#7f85fa"/><path d="m460.706 91.447 1.92 1.92a15.6 15.6 0 0 0 3.841-6.487l-2.597-.766c.478-1.612.627-3.293.438-4.955l2.686-.298c-.308-2.517-1.174-4.995-2.677-7.055l-2.199 1.542a14 14 0 0 0-1.413-1.671 13 13 0 0 0-2.199-1.761l1.433-2.289c-2.149-1.333-4.637-2.169-7.174-2.298l-.169 2.696a12.5 12.5 0 0 0-4.935.677l-.885-2.557a14.96 14.96 0 0 0-6.278 4.169l2 1.821a12.7 12.7 0 0 0-2.547 4.278l-2.547-.895c-.866 2.398-1.065 5.005-.657 7.502l2.676-.428a12.4 12.4 0 0 0 1.751 4.657l-2.288 1.433c1.343 2.179 3.254 3.93 5.462 5.204l1.323-2.358a12.35 12.35 0 0 0 4.736 1.512l-.298 2.706c2.517.289 5.104-.09 7.462-1.035l-1.015-2.507a12.5 12.5 0 0 0 4.15-2.757m-14.367-3.403a7.76 7.76 0 0 1 0-10.965 7.76 7.76 0 0 1 10.965 0c3.025 3.025 3.015 7.93-.01 10.955s-7.931 3.035-10.955.01" style="fill:#fff"/><path d="m423.711 77.769 1.446 1.446a11.75 11.75 0 0 0 2.893-4.886l-1.956-.577a9.4 9.4 0 0 0 .33-3.732l2.023-.225c-.232-1.896-.884-3.762-2.016-5.313l-1.656 1.161a10.4 10.4 0 0 0-1.064-1.259 9.8 9.8 0 0 0-1.656-1.326l1.079-1.724c-1.619-1.004-3.492-1.634-5.403-1.731l-.128 2.031a9.4 9.4 0 0 0-3.717.509l-.667-1.926a11.3 11.3 0 0 0-4.729 3.14l1.506 1.371a9.5 9.5 0 0 0-1.918 3.222l-1.918-.674c-.652 1.806-.802 3.769-.495 5.65l2.016-.322A9.35 9.35 0 0 0 409 76.111l-1.724 1.079c1.012 1.641 2.451 2.96 4.114 3.919l.997-1.776a9.3 9.3 0 0 0 3.567 1.139l-.225 2.038c1.896.217 3.844-.067 5.621-.779l-.764-1.889a9.4 9.4 0 0 0 3.125-2.073m-10.821-2.563a5.844 5.844 0 0 1 0-8.258 5.844 5.844 0 0 1 8.258 0 5.835 5.835 0 0 1-.007 8.251c-2.279 2.278-5.973 2.286-8.251.007" style="fill:#a0a8fb"/><path d="M317.896 205.182c-4.012.779-13.031 0-13.031 0l-11.82-10.479s2.401-15.399 5.212-17.605c2.801-2.206 7.007-6.013 7.007-6.013l-20.438-10.954-7.818 16.967.4 17.605 5.061 20.244c-.973 1.07-4.726 4.985-8.262 5.937-4.109 1.103-29.057-3.601-29.057-3.601s-16.134 8.413-22.05 8.413c-4.012 0-8.586-2.39-11.528-4.931-1.406-1.211-2.433-2.455-2.855-3.482-1.298-3.212 0-17.335 0-17.335l-5.158-.205c-5.158-.205-20.698-17.14-22.644-24.656-1.957-7.516.703-17.627.703-17.627l1.698-.605 14.08-5.05c-1.503-3.85-2.52-7.894-3.082-11.993l.378-.043a.947.947 0 0 0 .822-1.027l-1.341-11.084v-.011c.811-1.492 4.369-7.981 5.083-8.77.8-.898 16.329-5.915 18.33-6.196 2.011-.292 5.558 1.276 5.558 1.276-2.076.443-3.655.714-3.655.714s13.615 11.225 23.445 11.225 24.158-10.024 24.158-10.024l-2.671-1.125c.195-.011 2.314-.097 5.829.627 3.677.746 18.189 5.504 24.796 10.522 6.618 5.007 38.984 35.567 39.882 44.186.908 8.617-13.02 34.322-17.032 35.1" style="fill:#e8a03f"/><path d="M307.461 471.594h-35.772l-6.715-21.076v21.076h-4.78s-4.693-26.829-4.964-32.052c-.216-4.423 2.238-8.997 2.985-10.273 3.688 2.725 7.721 5.493 8.878 5.504 1.146 0 6.326-3.266 11.095-6.456l10.684 26.992c10.976 4.065 18.589 16.285 18.589 16.285" style="fill:#222a40"/><path d="m304.865 205.182-9.213 3.493s-4.834 6.78-10.673 6.499a26 26 0 0 1-2.087-.173c-.119-.216-.173-.324-.173-.324s-.087.097-.249.27c-3.839-.541-5.061-1.73-5.061-1.73l-9.462-1.546s-3.114.876-5.266 1.449-2.909-1.752-2.909-1.752l5.364-2.552 2.39-.314 5.58-.746-7.872-.4s-2.53 1.06-6.456 1.06c-3.936 0-3.612-2.011-3.612-2.011l14.48-4.109-6.91-.595s-2.011 1.449-5.31 2.152c-3.309.703-3.806-1.557-3.806-1.557l6.359-4.055 9.722-1.157-1.86-1.2s-4.585.206-8.067.206-3.623-2.055-3.806-2.704c-.173-.66 8.121-1.86 10.122-2.109 2.011-.249 5.212.097 8.219 2.055.66.422 1.579.941 2.606 1.481 3.677 1.936 8.813 4.228 8.813 4.228l7.321-4.336z" style="fill:#e48c59"/><path d="M282.891 215.001c1.287 2.563 9.689 19.649 8.846 31.436-.898 12.782-4.801 175.867-4.801 175.867s-4.196 2.974-8.748 6.013c-4.769 3.19-9.949 6.456-11.095 6.456-1.157-.011-5.191-2.779-8.878-5.504-3.547-2.617-6.759-5.169-6.759-5.169l-6.304-149.405-42.845 153.914c-1.6 1.179-3.882 2.033-6.294 2.639-5.612 1.427-11.895 1.579-11.895 1.579-3.147-1.503-5.948-4.25-8.024-6.726-2.293-2.725-3.698-5.104-3.698-5.104s20.947-130.664 27.662-164.934c6.715-34.269 11.517-35.297 11.517-35.297 2.941 2.541 7.516 4.931 11.528 4.931 5.915 0 22.05-8.413 22.05-8.413s24.948 4.704 29.057 3.601c3.536-.952 7.289-4.866 8.262-5.937.127.021.268.043.419.053" style="fill:#6455e7"/><path d="M233.677 108.279c.822-3.396 1.611-8.813 1.611-8.813 7.732 19.162 22.536 12.501 22.536 12.501l6.586 2.779h.011l2.671 1.125s-14.329 10.024-24.158 10.024-23.445-11.225-23.445-11.225 1.579-.27 3.655-.714c3.753-.789 9.127-2.098 9.776-3.298.238-.443.498-1.308.757-2.379" style="fill:#e48c59"/><path d="M224.085 89.322a9.65 9.65 0 0 1-2.747-4.563c-.411-1.568-.422-3.277.162-4.791.205-.53.487-1.038.833-1.492.627-.854 1.471-1.546 2.455-1.925a5.05 5.05 0 0 1 2.12-.303s7.937-4.953 8.316-13.561c0 0 10.976 7.062 13.377 6.24 0 0-.519-.789-.898-4.812 0 0 8.662 2.747 13.561 1.903h.011s.822 4.153 1.622 8.997c.822 4.996 1.633 10.717 1.503 13.344-.259 5.18-6.542 14.75-8.294 16.502-1.763 1.763-5.764 1.59-8.673 1.168-1.514-.216-7.591-1.687-12.144-6.564a18.9 18.9 0 0 1-4.336-7.591 9.43 9.43 0 0 1-5.537-1.503 9 9 0 0 1-1.331-1.049" style="fill:#e48c59"/><path d="m256.105 104.862 1.719 7.105s-14.804 6.661-22.536-12.501c4.553 4.877 10.63 6.348 12.144 6.564 2.91.421 6.911.594 8.673-1.168M264.8 61.617c-.638 4.455-1.265 8.932-1.903 13.398-.8-4.845-1.622-8.997-1.622-8.997h-.011c-4.899.844-13.561-1.903-13.561-1.903.379 4.023.898 4.812.898 4.812-2.401.822-13.377-6.24-13.377-6.24-.379 8.608-8.316 13.561-8.316 13.561a5.05 5.05 0 0 0-2.12.303c-.984.379-1.827 1.071-2.455 1.925a51.3 51.3 0 0 1-3.049-8.186c-.8-2.855-1.341-5.937-.411-8.759.757-2.314 2.455-4.239 4.412-5.688 1.86-1.363 3.947-2.347 6.045-3.309 1.871-3.114 5.429-4.953 9.03-5.472 2.931-.422 5.894-.097 8.803.519.725.151 1.438.324 2.152.497a82 82 0 0 1 11.009 3.601c1.157.465 2.336.984 3.201 1.892.962 1.016 1.438 2.433 1.557 3.839.118 1.395-.087 2.812-.282 4.207" style="fill:#222a40"/><path d="M235.289 99.465s-.79 5.418-1.611 8.813c-2.357-.595-4.434-2.314-5.385-4.563a9.77 9.77 0 0 1-4.888 3.666c2.585-5.612 2.833-12.263.681-18.059.411.389.854.746 1.33 1.049a9.43 9.43 0 0 0 5.537 1.503 18.9 18.9 0 0 0 4.336 7.591M196.012 431.247c1.644 9.462 3.817 22.807 3.688 26.451-.216 5.839-12.349 17.216-15.377 16.296-3.028-.93-10.944-10.165-11.82-13.928-.692-2.909 2.217-24.256 3.59-33.966 2.076 2.476 4.877 5.223 8.024 6.726 0 0 6.283-.151 11.895-1.579" style="fill:#222a40"/><path d="m197.397 151.805-14.08 5.05c-.627-3.32-2.552-6.326-4.877-8.813-1.579-1.698-3.342-3.201-5.115-4.693l2.552-1.741a.97.97 0 0 0 .833.335l17.605-2.13c.562 4.098 1.579 8.142 3.082 11.992M195.948 114.994c.519.53.324 1.384.119 2.087a52.6 52.6 0 0 0-1.968 9.927l-1.33-10.933c.238-.249.497-.476.757-.692.691-.572 1.794-1.027 2.422-.389" style="fill:#e48c59"/><path d="M195.515 138.742a.947.947 0 0 1-.822 1.027l-.378.043-17.605 2.13a.97.97 0 0 1-.833-.335.9.9 0 0 1-.206-.465l-.476-3.947c.314-.216.638-.443.93-.671l.465 3.85 17.529-2.13.314-.032-.606-5.061-.011-.043-1.925-16.005v-.011l-1.438-11.884-17.853 2.152 2.444 20.19c-.195-.097-.66-.108-1.027-.087l-.13-1.081v-.011c.141-1.081-.13-2.249-.4-3.341v-.022l-2.076-17.151c-.065-.497.314-.952.811-1.017l17.983-2.174c.508-.065.984.303 1.038.8l1.525 12.609 1.33 10.933v.011c-.043.314-.065.616-.086.93 0 0 .054-.108.162-.292z" style="fill:#222a40"/><path d="m193.828 133.151.606 5.061-.314.032-17.529 2.13-.465-3.85c.422-.314.768-.616.898-.854.368-.66.4-1.579-.141-2.13-.314-.314-.735-.443-1.179-.487a5 5 0 0 0-.898-.022c.238-.303.606-.703.779-.984.227-.368.422-.746.551-1.157.238-.757.26-1.622-.097-2.336a2.2 2.2 0 0 0-.995-1.006l-2.444-20.19 17.854-2.152 1.438 11.884v.011l1.925 16.005z" style="fill:#c1c9fc"/><path d="m175.196 137.195.476 3.947a.9.9 0 0 0 .206.465l-2.552 1.741c-1.071-.887-2.152-1.773-3.19-2.693-1.016-.887-2.044-1.871-2.476-3.136-.422-1.2-.119-2.747.93-3.417-.119-.314-.259-.627-.389-.941-.227-.562-.465-1.135-.497-1.752-.076-1.287.746-2.433 1.536-3.46l-.378-.076c.346-1.752.681-3.482 1.027-5.223.162-.822.443-1.784 1.233-2.033.606-.195 1.287.151 1.665.649.389.497.551 1.135.703 1.741v.022l.4 3.341v.011c-.032.379-.13.746-.281 1.092.097-.011.249-.011.411-.011.368-.022.833-.011 1.027.087.433.216.789.573.995 1.006.357.714.335 1.579.097 2.336-.13.411-.324.789-.551 1.157-.173.281-.541.681-.779.984.292-.011.595-.022.898.022.443.043.865.173 1.179.487.541.551.508 1.471.141 2.13-.13.238-.476.541-.898.854-.295.227-.62.454-.933.67" style="fill:#e48c59"/><path d="M252.54 77.729s-1.065 2.69-.783 5.875 2.581 5.056 3.779 4.808 3.321-1.798 3-3.436c0 0-.562-1.085-1.565-1.912-1.005-.828-4.431-5.335-4.431-5.335" style="fill:#e07045"/><path d="M254.131 89.541a.5.5 0 0 1-.17-.97c1.527-.552 2.868-1.454 3.877-2.606.373-.427.313-1.034-.146-1.477a45 45 0 0 1-6.236-7.457.499.499 0 1 1 .832-.553 44 44 0 0 0 6.099 7.291c.85.819.935 2.02.203 2.855-1.119 1.279-2.603 2.278-4.289 2.888a.5.5 0 0 1-.17.029M245.298 77.388c.201 1.503-.696 2.863-2.004 3.038s-2.531-.902-2.732-2.405.696-2.863 2.004-3.038 2.531.902 2.732 2.405M260.196 75.394c.201 1.503-.696 2.863-2.004 3.038s-2.531-.901-2.732-2.404.696-2.863 2.004-3.038 2.531.901 2.732 2.404M242.409 69.614c-1.621.357-3.114.98-4.51 1.877-.252.162-.435.537-.474.823-.042.31.048.702.254.945.208.243.495.444.823.474.354.032.646-.063.945-.255q.113-.072.228-.14a12 12 0 0 1 2.72-1.143q.173-.045.348-.085c.332-.073.621-.205.834-.484.188-.245.303-.622.248-.931-.113-.625-.727-1.233-1.416-1.081M254.734 67.965a13.7 13.7 0 0 1 4.845.625c.285.09.561.404.673.669.122.288.138.69.003.979-.136.289-.361.558-.669.673-.334.124-.64.11-.979.003q-.128-.039-.257-.075a12 12 0 0 0-2.925-.388q-.179.003-.358.01c-.34.017-.653-.035-.931-.247-.245-.188-.456-.521-.484-.834-.056-.633.377-1.38 1.082-1.415" style="fill:#222a40"/><path d="M258.326 93.781c-.645 1.706-2.432 4.852-6.818 4.708-4.002-.116-5.453-3.606-5.922-5.449a.85.85 0 0 1 .873-1.07l11.113.688c.576.035.954.604.754 1.123" style="fill:#fff"/><path d="M229.795 89.868a.5.5 0 0 1-.487-.389c-.706-3.098-2.767-5.902-5.514-7.501a.501.501 0 0 1 .503-.865c2.982 1.736 5.219 4.78 5.985 8.144a.5.5 0 0 1-.487.611M228.893 51.63a.5.5 0 0 1-.471-.667 22.4 22.4 0 0 1 3.726-6.642.5.5 0 0 1 .776.63 21.5 21.5 0 0 0-3.56 6.346.5.5 0 0 1-.471.333" style="fill:#222a40"/><path d="M228.081 51.674a.5.5 0 0 1-.48-.363 8.14 8.14 0 0 1 .283-5.257.5.5 0 0 1 .927.375 7.13 7.13 0 0 0-.247 4.608.5.5 0 0 1-.483.637M222.099 104.728a.5.5 0 0 1-.388-.814 15.89 15.89 0 0 0 3.416-11.444.5.5 0 1 1 .995-.099 16.9 16.9 0 0 1-3.632 12.171.5.5 0 0 1-.391.186M204.124 200.275a6 6 0 0 1-.619-.035.5.5 0 0 1 .112-.994c5.659.654 7.799-9.845 8.602-13.792l.122-.594c.73-3.507-.938-17.419-1.655-21.25-.574-3.06-8.379-9.477-11.617-11.906l-17.279 6.227a.5.5 0 1 1-.339-.941l17.532-6.318a.5.5 0 0 1 .467.069c.467.346 11.44 8.532 12.218 12.685.75 4.001 2.42 17.949 1.651 21.639l-.121.589c-.825 4.057-2.975 14.62-9.074 14.621" style="fill:#222a40"/><path d="M208.892 160.292h-.016a.5.5 0 0 1-.485-.515c.194-6.348 1.678-14.063 1.693-14.141a.499.499 0 1 1 .981.191c-.015.076-1.483 7.714-1.674 13.98a.5.5 0 0 1-.499.485M285.13 158.407l-.039-.002a.5.5 0 0 1-.46-.537l1.352-17.532a.52.52 0 0 1 .536-.46.5.5 0 0 1 .46.537l-1.352 17.532a.5.5 0 0 1-.497.462M283.175 158.407a.5.5 0 0 1-.378-.173l-6.765-7.816a.5.5 0 1 1 .756-.654l6.765 7.816a.5.5 0 0 1-.378.827M305.266 171.586a.501.501 0 0 1-.312-.892c.162-.127 4.022-3.13 10.332-3.815a.5.5 0 0 1 .108.994c-6.008.652-9.782 3.576-9.819 3.605a.5.5 0 0 1-.309.108M223.101 226.196a.5.5 0 0 1-.095-.99c25.267-4.912 30.098-16.852 30.144-16.972a.503.503 0 0 1 .645-.29.5.5 0 0 1 .291.643c-.192.511-5.008 12.57-30.889 17.601a1 1 0 0 1-.096.008M225.146 178.518a.5.5 0 0 1-.13-.983 299 299 0 0 1 40.358-7.95.5.5 0 0 1 .125.993 298 298 0 0 0-40.223 7.924.6.6 0 0 1-.13.016M235.832 178.868a.5.5 0 0 1-.133-.982 47 47 0 0 1 12.756-1.72.5.5 0 0 1 .498.501.517.517 0 0 1-.502.499h-.143c-4.173 0-8.324.566-12.342 1.684a.5.5 0 0 1-.134.018M245.554 147.434a.5.5 0 0 1-.473-.335l-12.634-36.276a.5.5 0 1 1 .945-.329l12.164 34.926 11.797-33.618a.5.5 0 0 1 .944.331l-12.27 34.968a.5.5 0 0 1-.473.333" style="fill:#222a40"/><path d="M249.746 151.28c0 3.57-1.958 6.463-4.374 6.463s-4.373-2.894-4.373-6.463 1.958-6.463 4.373-6.463 4.374 2.893 4.374 6.463" style="fill:#fff"/><path d="M247.35 270.387a.5.5 0 0 1-.179-.967l26.254-10.021a.5.5 0 1 1 .358.934l-26.254 10.021a.5.5 0 0 1-.179.033M247.349 273.594a.501.501 0 0 1-.036-.999l16.033-1.202a.5.5 0 1 1 .074.998l-16.033 1.202zM176.093 426.6a.5.5 0 0 1-.49-.603l12.236-58.512c.126-.699 12.944-71.511 15.022-97.639 2.088-26.252 12.477-46.288 12.582-46.487a.5.5 0 1 1 .885.465c-.104.198-10.399 20.063-12.47 46.103-2.082 26.177-14.909 97.038-15.038 97.75l-12.239 58.525a.5.5 0 0 1-.488.398M170.726 139.167a.5.5 0 0 1-.156-.975l4.469-1.472c.114-.03 2.006-.536 1.761-2.077-.069-.431-.236-.732-.513-.921-.549-.375-1.364-.205-1.373-.202-1.387.112-5.037.495-6.102 1.029a.5.5 0 1 1-.448-.894c1.433-.72 5.899-1.083 6.404-1.123-.022 0 1.163-.261 2.077.358.513.347.83.884.943 1.594.312 1.958-1.479 2.946-2.47 3.194l-4.435 1.462a.5.5 0 0 1-.157.027M173.607 127.974a.5.5 0 0 1-.474-.659c.01-.029.964-2.936-.189-5.041-.402-.734-.804-1.166-1.13-1.216-.368-.05-.818.374-1.213.753a.5.5 0 0 1-.693-.721c.533-.513 1.201-1.159 2.057-1.021.669.102 1.276.666 1.856 1.724 1.367 2.495.306 5.706.26 5.841a.5.5 0 0 1-.474.34" style="fill:#222a40"/><path d="M174.806 133.532a.5.5 0 0 1-.326-.879c1.283-1.104 1.442-2.616 1.189-3.574-.171-.649-.495-.994-.722-1.039-1.232-.245-5.005-.319-6.259 1.589a.5.5 0 0 1-.836-.55c1.672-2.542 6.175-2.24 7.288-2.021.681.135 1.24.795 1.496 1.765.327 1.237.129 3.182-1.504 4.587a.5.5 0 0 1-.326.122M188.813 144.654a.5.5 0 0 1-.469-.328c-.842-2.29-4.527-3.462-4.564-3.474a.5.5 0 0 1 .296-.955c.171.053 4.193 1.329 5.206 4.084a.5.5 0 0 1-.469.673" style="fill:#222a40"/><path d="M243.055 86.346a3.882 3.882 0 1 1-7.766 0 3.882 3.882 0 1 1 7.766 0" style="fill:#e07045"/><path d="M324.182 43.627c0 12.158-11.99 22.021-26.786 22.021q-1.17 0-2.313-.084c-1.551-.111-3.093.344-4.393 1.198-5.554 3.632-12.678 4.114-12.678 4.114.056-.037.102-.074.158-.111 3.966-2.758 4.003-8.517.269-11.591-4.839-3.975-7.829-9.473-7.829-15.548 0-12.167 11.99-22.021 26.785-22.021 14.797.001 26.787 9.855 26.787 22.022" style="fill:#fff"/><circle cx="296.993" cy="43.553" r="16.804" style="fill:#fff" transform="rotate(-76.621 296.975 43.555)"/><path d="M296.993 61.331c-9.803 0-17.778-7.975-17.778-17.778s7.975-17.778 17.778-17.778 17.778 7.975 17.778 17.778-7.976 17.778-17.778 17.778m0-33.609c-8.729 0-15.831 7.102-15.831 15.831s7.102 15.831 15.831 15.831 15.831-7.102 15.831-15.831-7.102-15.831-15.831-15.831" style="fill:#a0a8fb"/><path d="M296.993 57.416a.487.487 0 0 1-.487-.487v-3.973a.487.487 0 1 1 .974 0v3.973a.487.487 0 0 1-.487.487M296.993 34.637a.487.487 0 0 1-.487-.487v-3.973a.487.487 0 1 1 .974 0v3.973a.487.487 0 0 1-.487.487M287.59 44.04h-3.973a.487.487 0 1 1 0-.974h3.973a.487.487 0 1 1 0 .974M310.369 44.04h-3.973a.487.487 0 1 1 0-.974h3.973a.487.487 0 1 1 0 .974M287.534 53.498a.486.486 0 0 1-.344-.831l2.81-2.809a.486.486 0 1 1 .688.688l-2.81 2.809a.49.49 0 0 1-.344.143M303.641 37.391a.486.486 0 0 1-.344-.831l2.809-2.81a.486.486 0 1 1 .688.688l-2.809 2.81a.48.48 0 0 1-.344.143M290.344 37.391a.49.49 0 0 1-.344-.143l-2.81-2.81a.486.486 0 1 1 .688-.688l2.81 2.81a.486.486 0 0 1-.344.831M306.451 53.498a.49.49 0 0 1-.344-.143l-2.809-2.809a.486.486 0 1 1 .688-.688l2.809 2.809a.486.486 0 0 1-.344.831" style="fill:#a0a8fb"/><path d="M296.993 45.374a1.23 1.23 0 0 1-1.229-1.229V32.637a1.23 1.23 0 0 1 2.458 0v9.762l5.688-2.033a1.23 1.23 0 0 1 1.571.744 1.23 1.23 0 0 1-.744 1.571l-7.331 2.62a1.2 1.2 0 0 1-.413.073" style="fill:#7f85fa"/><path d="M169.164 66.013c0 8.995 8.871 16.292 19.817 16.292q.866 0 1.711-.062c1.147-.082 2.288.254 3.25.886 4.109 2.687 9.38 3.044 9.38 3.044l-.117-.083c-2.934-2.041-2.962-6.301-.199-8.576 3.58-2.941 5.793-7.009 5.793-11.503 0-9.002-8.871-16.292-19.817-16.292s-19.818 7.293-19.818 16.294" style="fill:#dce2fd"/><path d="m184.816 77.085-9.589-9.588 4.452-4.452 5.137 5.137 13.468-13.467 4.452 4.451z" style="fill:#6455e7"/><path d="M60.551 76.652c-1.559-.417-2.558-1.893-3.818-4.907-2.496-5.954-12.397-6.093-13.69-18.124s11.294-16.112 11.294-16.112 12.402-4.619 18.858 5.615c6.458 10.233-1.216 16.49.529 22.706.884 3.147 1.018 4.924.052 6.218-.943 1.264-2.931 2.068-6.287 3.236-3.359 1.169-5.417 1.774-6.938 1.368" style="fill:#fff"/><path d="M73.775 72.048c.051.057.21.3.373 1.231.101.583-.063 1.684-.585 2.397a1.7 1.7 0 0 1-.645.548c-.906.415-2.313.986-4.494 1.745s-3.639 1.186-4.606 1.424c-.306.076-.631.043-.95-.061-.81-.265-1.571-.988-1.84-1.484-.454-.83-.481-1.122-.475-1.196 1.521.406 3.579-.199 6.937-1.368 3.354-1.169 5.343-1.973 6.285-3.236" style="fill:#e8a03f"/><path d="M75.119 79.503s1.024.193.413 1.186c0 0-.136.153-1.236.626-.786.339-2.075.84-4.162 1.567s-3.409 1.134-4.235 1.356c-1.153.311-1.355.276-1.355.276-1.096-.398-.413-1.186-.413-1.186l-.251-.72c-1.058-.452-.437-1.255-.437-1.255l-.218-.626c-.893-.575-.433-1.244-.433-1.244l.075-.15c.319.104.644.136.95.061.968-.237 2.425-.664 4.606-1.424s3.589-1.33 4.494-1.745c.255-.117.47-.31.645-.548l.217-.02s.776.239.433 1.244l.218.626s.986.244.437 1.255z" style="fill:#e8a03f"/><path d="M74.296 81.315s.459 1.835-3.579 3.241c-4.035 1.405-4.818-.317-4.818-.317.827-.223 2.148-.63 4.235-1.356 2.086-.727 3.375-1.228 4.162-1.568" style="fill:#e8a03f"/><path d="M63.384 76.99a.54.54 0 0 1-.379-.292L52.954 56.219a.541.541 0 0 1 .972-.476l10.051 20.479a.54.54 0 0 1-.593.768M70.501 74.566a.54.54 0 0 1-.422-.423l-4.538-22.357a.54.54 0 1 1 1.059-.215l4.538 22.357a.54.54 0 0 1-.637.638" style="fill:#222a40"/><path d="M53.557 61.435a.541.541 0 0 1 .053-1.069c.056-.006 4.396-.474 6.669-3.069a6.5 6.5 0 0 1-1.719-1.186c-2.568-2.447-2.802-4.348-2.546-5.512a3.21 3.21 0 0 1 2.03-2.329l.215-.073c.756-.259 2.004-.253 3.029.606.913.766 1.887 2.414 1.347 5.919a6.5 6.5 0 0 1-.638 1.989c3.385.668 7.107-1.61 7.155-1.64a.542.542 0 0 1 .573.918c-.222.139-4.479 2.744-8.352 1.706-2.448 3.192-7.396 3.722-7.657 3.747a.5.5 0 0 1-.159-.007m6.079-12.266a2 2 0 0 0-1.03.052l-.215.073c-.49.167-1.131.67-1.322 1.537-.277 1.261.517 2.858 2.236 4.497a5.3 5.3 0 0 0 1.623 1.062 5.3 5.3 0 0 0 .638-1.832c.362-2.347.016-4.097-.973-4.926a2.13 2.13 0 0 0-.957-.463M84.8 98.03l-.053-.003c-6.733-.712-12.759-5.75-14.653-12.251a.5.5 0 0 1 .96-.28c1.784 6.122 7.458 10.865 13.799 11.537a.5.5 0 0 1-.053.997M73.602 40.038a.5.5 0 0 1-.297-.903L87.284 28.84a.5.5 0 0 1 .593.805L73.898 39.941a.5.5 0 0 1-.296.097M71.149 36.969a.5.5 0 0 1-.455-.705l4.181-9.256a.5.5 0 0 1 .911.411l-4.181 9.257a.5.5 0 0 1-.456.293M67.063 35.83h-.006a.5.5 0 0 1-.494-.506l.075-5.937a.5.5 0 0 1 .5-.494h.006a.5.5 0 0 1 .494.506l-.075 5.938a.5.5 0 0 1-.5.493M76.758 42.969a.5.5 0 0 1-.189-.962l10.154-4.134a.499.499 0 1 1 .377.925l-10.154 4.134a.5.5 0 0 1-.188.037M84.048 47.028h-.006l-6.388-.075a.5.5 0 0 1-.494-.506c.003-.276.21-.532.506-.494l6.388.075a.499.499 0 0 1-.006 1" style="fill:#222a40"/></svg>